<svg width="466" height="383" viewBox="0 0 466 383" fill="none" xmlns="http://www.w3.org/2000/svg">
<path d="M209.921 200.832C209.921 200.832 174.634 221.476 166.28 270.73C166.28 270.73 200.648 278.709 246.665 237" fill="#EB773A"/>
<path d="M209.479 207.114C209.479 207.114 194.427 221.91 190.186 232.353C185.946 242.796 180.412 258.078 180.412 258.078C180.412 258.078 206.916 260.555 231.835 243.843C256.754 227.132 233 195.879 209.479 207.114Z" fill="#FFAE46"/>
<path d="M224.437 201.918C223.529 203.59 208.022 213.165 205.122 226.979L210.178 222.778C210.178 222.778 201.58 235.979 197.933 243.575C197.933 243.575 218.903 234.422 218.251 234.971L212.321 239.898C212.321 239.898 228.27 239.528 239.116 228.906C249.962 218.284 235.05 199.76 235.05 199.76L224.437 201.918Z" fill="#FAD374"/>
<path d="M271.235 201.79C271.235 201.79 268.498 221.259 262.638 226.047C256.778 230.834 237.753 246.703 237.753 246.703L234.596 242.133C234.596 242.133 247.714 216.51 250.032 205.199C252.351 193.887 271.235 201.79 271.235 201.79Z" fill="#68E1FD"/>
<path opacity="0.61" d="M271.235 201.79C271.235 201.79 268.498 221.259 262.638 226.047C256.778 230.834 237.753 246.703 237.753 246.703L234.596 242.133C234.596 242.133 247.714 216.51 250.032 205.199C252.351 193.887 271.235 201.79 271.235 201.79Z" fill="#363636"/>
<path d="M252.292 174.393C252.292 174.393 234.445 172.018 228.596 176.946C222.748 181.874 203.712 197.602 203.712 197.602L206.869 202.173C206.869 202.173 232.93 195.266 243.497 195.892C254.063 196.517 252.292 174.393 252.292 174.393Z" fill="#68E1FD"/>
<path opacity="0.61" d="M252.292 174.393C252.292 174.393 234.445 172.018 228.596 176.946C222.748 181.874 203.712 197.602 203.712 197.602L206.869 202.173C206.869 202.173 232.93 195.266 243.497 195.892C254.063 196.517 252.292 174.393 252.292 174.393Z" fill="#363636"/>
<path d="M337.978 141.71C342.696 133.633 346.506 124.962 349.325 115.883C349.325 115.883 338.957 116.011 323.462 121.066C324.697 129.709 331 136.603 337.978 141.71Z" fill="#68E1FD"/>
<path d="M296.413 176.798C301.336 172.711 301.891 164.427 297.652 158.295C293.413 152.164 285.985 150.507 281.062 154.595C276.139 158.683 275.584 166.967 279.823 173.098C284.062 179.229 291.49 180.886 296.413 176.798Z" fill="#68E1FD"/>
<path d="M385.533 85.3196C385.533 85.3196 287.906 111.925 238.301 190.696C238.301 190.696 226.651 204.318 232.278 211.888C237.905 219.459 256.661 213.433 256.661 213.433C256.661 213.433 318.301 194.258 385.533 85.3196Z" fill="#68E1FD"/>
<path d="M238.301 190.696C238.301 190.696 225.998 189.062 221.991 192.419C217.983 195.777 204.842 206.654 204.842 206.654L207.02 209.807C207.02 209.807 224.985 205.045 232.254 205.48C239.524 205.914 238.301 190.696 238.301 190.696Z" fill="#68E1FD"/>
<path d="M253.12 212.131C253.12 212.131 251.232 225.549 247.19 228.894C243.147 232.238 230.041 243.128 230.041 243.128L227.874 240.013C227.874 240.013 236.914 222.357 238.51 214.557C240.106 206.756 253.12 212.131 253.12 212.131Z" fill="#68E1FD"/>
<path opacity="0.29" d="M238.301 190.696C238.301 190.696 225.998 189.062 221.991 192.419C217.983 195.777 204.842 206.654 204.842 206.654L207.02 209.807C207.02 209.807 224.985 205.045 232.254 205.48C239.524 205.914 238.301 190.696 238.301 190.696Z" fill="#363636"/>
<path opacity="0.29" d="M253.12 212.131C253.12 212.131 251.232 225.549 247.19 228.894C243.147 232.238 230.041 243.128 230.041 243.128L227.874 240.013C227.874 240.013 236.914 222.357 238.51 214.557C240.106 206.756 253.12 212.131 253.12 212.131Z" fill="#363636"/>
<path d="M338.106 104.508C338.106 104.508 337.768 122.598 355.243 129.301L345.108 141.914C345.108 141.914 323.159 128.394 326.561 110.636L338.106 104.508Z" fill="#68E1FD"/>
<path d="M275.418 146.446C275.418 146.446 275.616 177.086 301.688 185.806L282.326 200.309C282.326 200.309 254.366 189.674 259.55 162.418L275.418 146.446Z" fill="#68E1FD"/>
<path d="M322.544 142.029C324.278 140.59 324.618 137.883 323.305 135.984C321.992 134.084 319.522 133.711 317.788 135.15C316.055 136.589 315.715 139.296 317.028 141.195C318.341 143.095 320.811 143.468 322.544 142.029Z" fill="#68E1FD"/>
<path d="M308.245 164.631C312.785 160.9 313.705 153.842 310.3 148.867C306.895 143.892 300.455 142.884 295.915 146.615C291.375 150.346 290.455 157.404 293.86 162.379C297.265 167.354 303.705 168.363 308.245 164.631Z" fill="#68E1FD"/>
<path opacity="0.61" d="M338.106 104.508C338.106 104.508 337.768 122.598 355.243 129.301L345.108 141.914C345.108 141.914 323.159 128.394 326.561 110.636L338.106 104.508Z" fill="#606060"/>
<path opacity="0.61" d="M275.418 146.446C275.418 146.446 275.616 177.086 301.688 185.806L282.326 200.309C282.326 200.309 254.366 189.674 259.55 162.418L275.418 146.446Z" fill="#606060"/>
<path opacity="0.61" d="M322.544 142.029C324.278 140.59 324.618 137.883 323.305 135.984C321.992 134.084 319.522 133.711 317.788 135.15C316.055 136.589 315.715 139.296 317.028 141.195C318.341 143.095 320.811 143.468 322.544 142.029Z" fill="#606060"/>
<path opacity="0.61" d="M308.245 164.631C312.785 160.9 313.705 153.842 310.3 148.867C306.895 143.892 300.455 142.884 295.915 146.615C291.375 150.346 290.455 157.404 293.86 162.379C297.265 167.354 303.705 168.363 308.245 164.631Z" fill="#606060"/>
<path d="M356.839 220.774C356.531 220.774 356.234 220.908 356.016 221.148C355.797 221.387 355.674 221.712 355.674 222.051C355.674 222.389 355.797 222.714 356.016 222.953C356.234 223.193 356.531 223.327 356.839 223.327C357.148 223.327 357.445 223.193 357.663 222.953C357.882 222.714 358.004 222.389 358.004 222.051C358.004 221.712 357.882 221.387 357.663 221.148C357.445 220.908 357.148 220.774 356.839 220.774Z" fill="white"/>
<path d="M297.821 271.624V272.441C297.821 272.779 297.943 273.104 298.162 273.343C298.38 273.583 298.677 273.717 298.986 273.717C299.295 273.717 299.591 273.583 299.809 273.343C300.028 273.104 300.151 272.779 300.151 272.441V271.624C300.151 271.285 300.028 270.96 299.809 270.721C299.591 270.481 299.295 270.347 298.986 270.347C298.677 270.347 298.38 270.481 298.162 270.721C297.943 270.96 297.821 271.285 297.821 271.624Z" fill="white"/>
<path d="M216.224 291.948V292.765C216.224 293.104 216.347 293.429 216.565 293.668C216.784 293.907 217.08 294.042 217.389 294.042C217.698 294.042 217.994 293.907 218.213 293.668C218.431 293.429 218.554 293.104 218.554 292.765V291.948C218.554 291.61 218.431 291.285 218.213 291.045C217.994 290.806 217.698 290.671 217.389 290.671C217.08 290.671 216.784 290.806 216.565 291.045C216.347 291.285 216.224 291.61 216.224 291.948Z" fill="white"/>
<path d="M292.31 229.711C292.001 229.711 291.705 229.845 291.486 230.085C291.268 230.324 291.145 230.649 291.145 230.987C291.145 231.326 291.268 231.651 291.486 231.89C291.705 232.129 292.001 232.264 292.31 232.264C292.619 232.264 292.915 232.129 293.134 231.89C293.352 231.651 293.475 231.326 293.475 230.987C293.475 230.649 293.352 230.324 293.134 230.085C292.915 229.845 292.619 229.711 292.31 229.711Z" fill="white"/>
<path d="M152.86 227.247C152.551 227.247 152.254 227.381 152.036 227.621C151.817 227.86 151.695 228.185 151.695 228.523C151.695 228.862 151.817 229.187 152.036 229.426C152.254 229.665 152.551 229.8 152.86 229.8C153.169 229.8 153.465 229.665 153.683 229.426C153.902 229.187 154.025 228.862 154.025 228.523C154.025 228.185 153.902 227.86 153.683 227.621C153.465 227.381 153.169 227.247 152.86 227.247Z" fill="white"/>
<path d="M100.505 230.987V231.804C100.505 232.143 100.627 232.468 100.846 232.707C101.064 232.947 101.361 233.081 101.67 233.081C101.979 233.081 102.275 232.947 102.493 232.707C102.712 232.468 102.835 232.143 102.835 231.804V230.987C102.835 230.649 102.712 230.324 102.493 230.085C102.275 229.845 101.979 229.711 101.67 229.711C101.361 229.711 101.064 229.845 100.846 230.085C100.627 230.324 100.505 230.649 100.505 230.987Z" fill="white"/>
<path d="M125.412 271.164C125.103 271.164 124.807 271.299 124.588 271.538C124.37 271.777 124.247 272.102 124.247 272.441C124.247 272.779 124.37 273.104 124.588 273.343C124.807 273.583 125.103 273.717 125.412 273.717C125.721 273.717 126.018 273.583 126.236 273.343C126.454 273.104 126.577 272.779 126.577 272.441C126.577 272.102 126.454 271.777 126.236 271.538C126.018 271.299 125.721 271.164 125.412 271.164Z" fill="white"/>
<path d="M163.985 198.815C163.676 198.815 163.38 198.95 163.162 199.189C162.943 199.429 162.82 199.753 162.82 200.092C162.82 200.431 162.943 200.755 163.162 200.995C163.38 201.234 163.676 201.369 163.985 201.369C164.294 201.369 164.591 201.234 164.809 200.995C165.028 200.755 165.15 200.431 165.15 200.092C165.15 199.753 165.028 199.429 164.809 199.189C164.591 198.95 164.294 198.815 163.985 198.815Z" fill="white"/>
<path d="M221.094 158.179C220.785 158.179 220.488 158.314 220.27 158.553C220.051 158.792 219.929 159.117 219.929 159.456C219.929 159.794 220.051 160.119 220.27 160.358C220.488 160.598 220.785 160.732 221.094 160.732C221.403 160.732 221.699 160.598 221.917 160.358C222.136 160.119 222.259 159.794 222.259 159.456C222.259 159.117 222.136 158.792 221.917 158.553C221.699 158.314 221.403 158.179 221.094 158.179Z" fill="white"/>
<path d="M255.962 317.494C255.653 317.494 255.357 317.629 255.138 317.868C254.92 318.108 254.797 318.432 254.797 318.771C254.797 319.109 254.92 319.434 255.138 319.674C255.357 319.913 255.653 320.048 255.962 320.048C256.271 320.048 256.567 319.913 256.786 319.674C257.004 319.434 257.127 319.109 257.127 318.771C257.127 318.432 257.004 318.108 256.786 317.868C256.567 317.629 256.271 317.494 255.962 317.494Z" fill="white"/>
</svg>
