<svg width="688" height="168" viewBox="0 0 688 168" fill="none" xmlns="http://www.w3.org/2000/svg">
<path d="M97.5874 7.96939C94.3967 5.20595 89.0763 6.5756 87.9803 10.44L67.4926 82.6486C66.5557 85.9485 69.3245 89.1603 73.0947 89.1603C73.4247 89.1603 70.8669 89.3211 110.887 86.6819C113.264 86.5254 115.29 85.0696 115.992 83.0152C125.689 54.637 121.621 28.7773 97.5874 7.96939V7.96939Z" fill="#80B9ED"/>
<path d="M199.999 14.4788C199.987 10.3976 195 7.90124 191.155 10.0643C147.481 34.6378 101.566 72.8096 80.4303 73.3141C62.6193 58.8904 48.312 53.4891 36.7288 56.804C26.7295 59.6656 19.8012 68.8748 16.1367 84.1758C15.1097 88.4647 20.0756 91.9172 24.4103 89.9293C33.7756 85.6348 40.5444 85.4972 46.9999 89.4786C59.4416 98.4469 57.5801 127.215 73.9951 134.906C84.752 139.947 98.0537 140.34 113.623 136.092C116.139 147.671 128.806 156.362 139.841 162.673C141.255 163.481 143.03 163.718 144.699 163.236C170.9 155.677 191.76 135.824 179.212 114.544C177.94 112.385 175.177 111.312 172.563 111.965C162.112 114.576 151.064 113.804 138.809 109.604L133.568 106.49C186.945 101.84 200.132 63.0593 199.999 14.4788V14.4788Z" fill="#80B9ED"/>
<path d="M191.155 10.0643C147.481 34.6378 101.566 72.8096 80.4303 73.3141C62.6193 58.8904 48.312 53.4891 36.7288 56.804C26.7295 59.6656 19.8012 68.8748 16.1367 84.1758C15.1097 88.4647 20.0756 91.9172 24.4103 89.9293C33.7756 85.6348 40.5444 85.4972 46.9999 89.4786C49.7608 91.4688 51.8635 94.5802 53.622 98.2245C69.1323 100.099 85.9159 105.134 101.242 116.069C128.606 135.595 156.717 144.287 177.082 143.304C184.215 133.892 184.617 123.71 179.213 114.544C177.94 112.385 175.178 111.312 172.564 111.965C162.112 114.576 151.065 113.804 138.809 109.604L133.569 106.49C187.087 101.827 200.132 62.8373 199.999 14.4788C199.987 10.3976 195 7.90124 191.155 10.0643V10.0643Z" fill="#8BC4FF"/>
<path d="M199.999 14.4788C199.987 10.3976 195 7.90124 191.155 10.0643C150.799 32.7708 110.333 65.8111 86.6204 72.2875C92.2633 76.4911 97.6347 81.5252 102.479 87.5657C112.004 99.4415 123.315 104.792 134.588 106.393C187.281 101.329 200.131 62.4844 199.999 14.4788V14.4788Z" fill="#A2D0F9"/>
<path d="M191.155 10.0643C173.102 20.2219 155.574 32.0821 138.542 43.3716C155.672 54.7263 176.925 67.7556 195.048 57.6766C198.424 45.7835 200.046 31.6194 199.999 14.4788C199.987 10.3976 195 7.90124 191.155 10.0643V10.0643Z" fill="#B4DCF9"/>
<path d="M199.999 14.4788C199.987 10.3976 195 7.90123 191.155 10.0643C166.257 24.0732 141.981 41.563 120.854 54.8763C120.556 36.1154 112.18 20.6031 97.5874 7.96939C94.3967 5.20595 89.0763 6.5756 87.9803 10.44L71.9474 66.9482C43.2706 47.2281 23.2565 54.4478 16.1367 84.1754C15.1097 88.4644 20.0756 91.9169 24.4103 89.9289C33.7756 85.6344 40.5444 85.4968 46.9999 89.4783C59.4416 98.4465 57.5801 127.214 73.9951 134.906C84.752 139.947 98.0537 140.34 113.623 136.092C116.139 147.671 128.806 156.362 139.841 162.673C141.255 163.481 143.03 163.717 144.699 163.236C170.9 155.677 191.76 135.823 179.212 114.543C177.94 112.384 175.177 111.312 172.563 111.965C162.112 114.575 151.064 113.804 138.809 109.604L133.568 106.489C186.945 101.84 200.132 63.0593 199.999 14.4788V14.4788ZM96.5276 22.396C106.39 33.742 110.522 46.8596 109 62.0494C101.923 66.111 90.4397 72.2445 82.1165 73.1873L96.5276 22.396ZM115.084 96.3624C109.214 96.0858 106.697 103.014 111.603 105.93C134.957 119.811 133.237 118.849 134.057 119.136C146.86 123.62 159.138 124.932 170.637 123.055C174.911 136.49 158.308 147.729 143.727 152.511C125.013 141.316 124.03 134.208 124.986 129.784C125.857 125.751 121.441 122.428 117.199 123.928C101.487 129.482 88.7448 130.059 79.3264 125.646C69.4341 121.01 69.0712 90.5952 53.733 80.9916C46.7093 76.5931 39.0769 75.2085 30.6167 76.8341C32.7902 72.0729 35.8768 67.9959 40.226 66.7512C45.3914 65.272 55.4734 66.7672 74.1697 82.2821C75.077 83.035 76.2271 83.5066 77.4525 83.6282C102.08 86.0714 142.452 51.5194 188.263 24.1518C186.314 73.5633 168.345 98.8503 115.084 96.3624V96.3624Z" fill="#2E58FF"/>
<path d="M219.688 135H206.234V67.7812H253.297V81.2344H219.688V94.6875H239.844V108.141H219.688V135ZM268.203 135H255.406V84.7969H258.5L262.719 90.75C264.781 88.875 267.125 87.4375 269.75 86.4375C272.375 85.4062 275.094 84.8906 277.906 84.8906H289.203V97.6406H277.906C276.562 97.6406 275.297 97.8906 274.109 98.3906C272.922 98.8906 271.891 99.5781 271.016 100.453C270.141 101.328 269.453 102.359 268.953 103.547C268.453 104.734 268.203 106 268.203 107.344V135ZM314.188 122.719C314.688 122.875 315.188 122.984 315.688 123.047C316.188 123.078 316.688 123.094 317.188 123.094C318.438 123.094 319.641 122.922 320.797 122.578C321.953 122.234 323.031 121.75 324.031 121.125C325.062 120.469 325.969 119.688 326.75 118.781C327.562 117.844 328.219 116.812 328.719 115.688L338.094 125.109C336.906 126.797 335.531 128.312 333.969 129.656C332.438 131 330.766 132.141 328.953 133.078C327.172 134.016 325.281 134.719 323.281 135.188C321.312 135.688 319.281 135.938 317.188 135.938C313.656 135.938 310.328 135.281 307.203 133.969C304.109 132.656 301.391 130.828 299.047 128.484C296.734 126.141 294.906 123.359 293.562 120.141C292.219 116.891 291.547 113.328 291.547 109.453C291.547 105.484 292.219 101.859 293.562 98.5781C294.906 95.2969 296.734 92.5 299.047 90.1875C301.391 87.875 304.109 86.0781 307.203 84.7969C310.328 83.5156 313.656 82.875 317.188 82.875C319.281 82.875 321.328 83.125 323.328 83.625C325.328 84.125 327.219 84.8438 329 85.7812C330.812 86.7188 332.5 87.875 334.062 89.25C335.625 90.5938 337 92.1094 338.188 93.7969L314.188 122.719ZM320.75 96.3281C320.156 96.1094 319.562 95.9688 318.969 95.9062C318.406 95.8438 317.812 95.8125 317.188 95.8125C315.438 95.8125 313.781 96.1406 312.219 96.7969C310.688 97.4219 309.344 98.3281 308.188 99.5156C307.062 100.703 306.172 102.141 305.516 103.828C304.859 105.484 304.531 107.359 304.531 109.453C304.531 109.922 304.547 110.453 304.578 111.047C304.641 111.641 304.719 112.25 304.812 112.875C304.938 113.469 305.078 114.047 305.234 114.609C305.391 115.172 305.594 115.672 305.844 116.109L320.75 96.3281ZM364.25 122.719C364.75 122.875 365.25 122.984 365.75 123.047C366.25 123.078 366.75 123.094 367.25 123.094C368.5 123.094 369.703 122.922 370.859 122.578C372.016 122.234 373.094 121.75 374.094 121.125C375.125 120.469 376.031 119.688 376.812 118.781C377.625 117.844 378.281 116.812 378.781 115.688L388.156 125.109C386.969 126.797 385.594 128.312 384.031 129.656C382.5 131 380.828 132.141 379.016 133.078C377.234 134.016 375.344 134.719 373.344 135.188C371.375 135.688 369.344 135.938 367.25 135.938C363.719 135.938 360.391 135.281 357.266 133.969C354.172 132.656 351.453 130.828 349.109 128.484C346.797 126.141 344.969 123.359 343.625 120.141C342.281 116.891 341.609 113.328 341.609 109.453C341.609 105.484 342.281 101.859 343.625 98.5781C344.969 95.2969 346.797 92.5 349.109 90.1875C351.453 87.875 354.172 86.0781 357.266 84.7969C360.391 83.5156 363.719 82.875 367.25 82.875C369.344 82.875 371.391 83.125 373.391 83.625C375.391 84.125 377.281 84.8438 379.062 85.7812C380.875 86.7188 382.562 87.875 384.125 89.25C385.688 90.5938 387.062 92.1094 388.25 93.7969L364.25 122.719ZM370.812 96.3281C370.219 96.1094 369.625 95.9688 369.031 95.9062C368.469 95.8438 367.875 95.8125 367.25 95.8125C365.5 95.8125 363.844 96.1406 362.281 96.7969C360.75 97.4219 359.406 98.3281 358.25 99.5156C357.125 100.703 356.234 102.141 355.578 103.828C354.922 105.484 354.594 107.359 354.594 109.453C354.594 109.922 354.609 110.453 354.641 111.047C354.703 111.641 354.781 112.25 354.875 112.875C355 113.469 355.141 114.047 355.297 114.609C355.453 115.172 355.656 115.672 355.906 116.109L370.812 96.3281Z" fill="#2E58FF"/>
<path d="M407.609 135H394.719V64.8281H407.609V135ZM466.016 135H462.922L457.953 128.109C456.734 129.203 455.438 130.234 454.062 131.203C452.719 132.141 451.297 132.969 449.797 133.688C448.297 134.375 446.75 134.922 445.156 135.328C443.594 135.734 442 135.938 440.375 135.938C436.844 135.938 433.516 135.344 430.391 134.156C427.297 132.969 424.578 131.25 422.234 129C419.922 126.719 418.094 123.938 416.75 120.656C415.406 117.375 414.734 113.641 414.734 109.453C414.734 105.547 415.406 101.969 416.75 98.7188C418.094 95.4375 419.922 92.625 422.234 90.2812C424.578 87.9375 427.297 86.125 430.391 84.8438C433.516 83.5312 436.844 82.875 440.375 82.875C442 82.875 443.609 83.0781 445.203 83.4844C446.797 83.8906 448.344 84.4531 449.844 85.1719C451.344 85.8906 452.766 86.7344 454.109 87.7031C455.484 88.6719 456.766 89.7188 457.953 90.8438L462.922 84.8906H466.016V135ZM453.125 109.453C453.125 107.703 452.781 106.016 452.094 104.391C451.438 102.734 450.531 101.281 449.375 100.031C448.219 98.75 446.859 97.7344 445.297 96.9844C443.766 96.2031 442.125 95.8125 440.375 95.8125C438.625 95.8125 436.969 96.1094 435.406 96.7031C433.875 97.2969 432.531 98.1719 431.375 99.3281C430.25 100.484 429.359 101.922 428.703 103.641C428.047 105.328 427.719 107.266 427.719 109.453C427.719 111.641 428.047 113.594 428.703 115.312C429.359 117 430.25 118.422 431.375 119.578C432.531 120.734 433.875 121.609 435.406 122.203C436.969 122.797 438.625 123.094 440.375 123.094C442.125 123.094 443.766 122.719 445.297 121.969C446.859 121.188 448.219 120.172 449.375 118.922C450.531 117.641 451.438 116.188 452.094 114.562C452.781 112.906 453.125 111.203 453.125 109.453ZM488.609 135H475.812V84.7969H478.906L483.125 89.6719C485.188 87.7969 487.516 86.3594 490.109 85.3594C492.734 84.3281 495.469 83.8125 498.312 83.8125C501.375 83.8125 504.266 84.4062 506.984 85.5938C509.703 86.75 512.078 88.3594 514.109 90.4219C516.141 92.4531 517.734 94.8438 518.891 97.5938C520.078 100.312 520.672 103.219 520.672 106.312V135H507.875V106.312C507.875 105 507.625 103.766 507.125 102.609C506.625 101.422 505.938 100.391 505.062 99.5156C504.188 98.6406 503.172 97.9531 502.016 97.4531C500.859 96.9531 499.625 96.7031 498.312 96.7031C496.969 96.7031 495.703 96.9531 494.516 97.4531C493.328 97.9531 492.297 98.6406 491.422 99.5156C490.547 100.391 489.859 101.422 489.359 102.609C488.859 103.766 488.609 105 488.609 106.312V135ZM573.688 94.7812L564.312 104.203C563.844 102.891 563.203 101.719 562.391 100.688C561.578 99.625 560.656 98.7344 559.625 98.0156C558.625 97.2969 557.531 96.75 556.344 96.375C555.156 96 553.938 95.8125 552.688 95.8125C550.938 95.8125 549.281 96.1719 547.719 96.8906C546.188 97.6094 544.844 98.625 543.688 99.9375C542.562 101.219 541.672 102.75 541.016 104.531C540.359 106.312 540.031 108.281 540.031 110.438C540.031 112.188 540.359 113.828 541.016 115.359C541.672 116.891 542.562 118.234 543.688 119.391C544.844 120.547 546.188 121.453 547.719 122.109C549.281 122.766 550.938 123.094 552.688 123.094C553.938 123.094 555.141 122.922 556.297 122.578C557.453 122.234 558.531 121.75 559.531 121.125C560.562 120.469 561.469 119.688 562.25 118.781C563.062 117.844 563.719 116.812 564.219 115.688L573.594 125.109C572.406 126.797 571.031 128.312 569.469 129.656C567.938 131 566.266 132.141 564.453 133.078C562.672 134.016 560.781 134.719 558.781 135.188C556.812 135.688 554.781 135.938 552.688 135.938C549.156 135.938 545.828 135.281 542.703 133.969C539.609 132.625 536.891 130.797 534.547 128.484C532.234 126.172 530.406 123.469 529.062 120.375C527.719 117.281 527.047 113.969 527.047 110.438C527.047 106.594 527.719 103 529.062 99.6562C530.406 96.3125 532.234 93.4062 534.547 90.9375C536.891 88.4375 539.609 86.4688 542.703 85.0312C545.828 83.5938 549.156 82.875 552.688 82.875C554.781 82.875 556.828 83.1406 558.828 83.6719C560.859 84.2031 562.781 84.9844 564.594 86.0156C566.438 87.0156 568.125 88.25 569.656 89.7188C571.219 91.1875 572.562 92.875 573.688 94.7812ZM599.188 122.719C599.688 122.875 600.188 122.984 600.688 123.047C601.188 123.078 601.688 123.094 602.188 123.094C603.438 123.094 604.641 122.922 605.797 122.578C606.953 122.234 608.031 121.75 609.031 121.125C610.062 120.469 610.969 119.688 611.75 118.781C612.562 117.844 613.219 116.812 613.719 115.688L623.094 125.109C621.906 126.797 620.531 128.312 618.969 129.656C617.438 131 615.766 132.141 613.953 133.078C612.172 134.016 610.281 134.719 608.281 135.188C606.312 135.688 604.281 135.938 602.188 135.938C598.656 135.938 595.328 135.281 592.203 133.969C589.109 132.656 586.391 130.828 584.047 128.484C581.734 126.141 579.906 123.359 578.562 120.141C577.219 116.891 576.547 113.328 576.547 109.453C576.547 105.484 577.219 101.859 578.562 98.5781C579.906 95.2969 581.734 92.5 584.047 90.1875C586.391 87.875 589.109 86.0781 592.203 84.7969C595.328 83.5156 598.656 82.875 602.188 82.875C604.281 82.875 606.328 83.125 608.328 83.625C610.328 84.125 612.219 84.8438 614 85.7812C615.812 86.7188 617.5 87.875 619.062 89.25C620.625 90.5938 622 92.1094 623.188 93.7969L599.188 122.719ZM605.75 96.3281C605.156 96.1094 604.562 95.9688 603.969 95.9062C603.406 95.8438 602.812 95.8125 602.188 95.8125C600.438 95.8125 598.781 96.1406 597.219 96.7969C595.688 97.4219 594.344 98.3281 593.188 99.5156C592.062 100.703 591.172 102.141 590.516 103.828C589.859 105.484 589.531 107.359 589.531 109.453C589.531 109.922 589.547 110.453 589.578 111.047C589.641 111.641 589.719 112.25 589.812 112.875C589.938 113.469 590.078 114.047 590.234 114.609C590.391 115.172 590.594 115.672 590.844 116.109L605.75 96.3281ZM642.453 135H629.656V84.7969H632.75L636.969 90.75C639.031 88.875 641.375 87.4375 644 86.4375C646.625 85.4062 649.344 84.8906 652.156 84.8906H663.453V97.6406H652.156C650.812 97.6406 649.547 97.8906 648.359 98.3906C647.172 98.8906 646.141 99.5781 645.266 100.453C644.391 101.328 643.703 102.359 643.203 103.547C642.703 104.734 642.453 106 642.453 107.344V135Z" fill="white"/>
</svg>
