<svg width="688" height="168" viewBox="0 0 688 168" fill="none" xmlns="http://www.w3.org/2000/svg">
<path d="M97.5874 7.96939C94.3967 5.20595 89.0763 6.5756 87.9803 10.44L67.4926 82.6486C66.5557 85.9485 69.3245 89.1603 73.0947 89.1603C73.4247 89.1603 70.8669 89.3211 110.887 86.6819C113.264 86.5254 115.29 85.0696 115.992 83.0152C125.689 54.637 121.621 28.7773 97.5874 7.96939V7.96939Z" fill="#80B9ED"/>
<path d="M199.999 14.4788C199.987 10.3976 195 7.90124 191.155 10.0643C147.481 34.6378 101.566 72.8096 80.4303 73.3141C62.6193 58.8904 48.312 53.4891 36.7288 56.804C26.7295 59.6656 19.8012 68.8748 16.1367 84.1758C15.1097 88.4647 20.0756 91.9172 24.4103 89.9293C33.7756 85.6348 40.5444 85.4972 46.9999 89.4786C59.4416 98.4469 57.5801 127.215 73.9951 134.906C84.752 139.947 98.0537 140.34 113.623 136.092C116.139 147.671 128.806 156.362 139.841 162.673C141.255 163.481 143.03 163.718 144.699 163.236C170.9 155.677 191.76 135.824 179.212 114.544C177.94 112.385 175.177 111.312 172.563 111.965C162.112 114.576 151.064 113.804 138.809 109.604L133.568 106.49C186.945 101.84 200.132 63.0593 199.999 14.4788V14.4788Z" fill="#80B9ED"/>
<path d="M191.155 10.0643C147.481 34.6378 101.566 72.8096 80.4303 73.3141C62.6193 58.8904 48.312 53.4891 36.7288 56.804C26.7295 59.6656 19.8012 68.8748 16.1367 84.1758C15.1097 88.4647 20.0756 91.9172 24.4103 89.9293C33.7756 85.6348 40.5444 85.4972 46.9999 89.4786C49.7608 91.4688 51.8635 94.5802 53.622 98.2245C69.1323 100.099 85.9159 105.134 101.242 116.069C128.606 135.595 156.717 144.287 177.082 143.304C184.215 133.892 184.617 123.71 179.213 114.544C177.94 112.385 175.178 111.312 172.564 111.965C162.112 114.576 151.065 113.804 138.809 109.604L133.569 106.49C187.087 101.827 200.132 62.8373 199.999 14.4788C199.987 10.3976 195 7.90124 191.155 10.0643V10.0643Z" fill="#8BC4FF"/>
<path d="M199.999 14.4788C199.987 10.3976 195 7.90124 191.155 10.0643C150.799 32.7708 110.333 65.8111 86.6204 72.2875C92.2633 76.4911 97.6347 81.5252 102.479 87.5657C112.004 99.4415 123.315 104.792 134.588 106.393C187.281 101.329 200.131 62.4844 199.999 14.4788V14.4788Z" fill="#A2D0F9"/>
<path d="M191.155 10.0643C173.102 20.2219 155.574 32.0821 138.542 43.3716C155.672 54.7263 176.925 67.7556 195.048 57.6766C198.424 45.7835 200.046 31.6194 199.999 14.4788C199.987 10.3976 195 7.90124 191.155 10.0643V10.0643Z" fill="#B4DCF9"/>
<path d="M199.999 14.4788C199.987 10.3976 195 7.90123 191.155 10.0643C166.257 24.0732 141.981 41.563 120.854 54.8763C120.556 36.1154 112.18 20.6031 97.5874 7.96939C94.3967 5.20595 89.0763 6.5756 87.9803 10.44L71.9474 66.9482C43.2706 47.2281 23.2565 54.4478 16.1367 84.1754C15.1097 88.4644 20.0756 91.9169 24.4103 89.9289C33.7756 85.6344 40.5444 85.4968 46.9999 89.4783C59.4416 98.4465 57.5801 127.214 73.9951 134.906C84.752 139.947 98.0537 140.34 113.623 136.092C116.139 147.671 128.806 156.362 139.841 162.673C141.255 163.481 143.03 163.717 144.699 163.236C170.9 155.677 191.76 135.823 179.212 114.543C177.94 112.384 175.177 111.312 172.563 111.965C162.112 114.575 151.064 113.804 138.809 109.604L133.568 106.489C186.945 101.84 200.132 63.0593 199.999 14.4788V14.4788ZM96.5276 22.396C106.39 33.742 110.522 46.8596 109 62.0494C101.923 66.111 90.4397 72.2445 82.1165 73.1873L96.5276 22.396ZM115.084 96.3624C109.214 96.0858 106.697 103.014 111.603 105.93C134.957 119.811 133.237 118.849 134.057 119.136C146.86 123.62 159.138 124.932 170.637 123.055C174.911 136.49 158.308 147.729 143.727 152.511C125.013 141.316 124.03 134.208 124.986 129.784C125.857 125.751 121.441 122.428 117.199 123.928C101.487 129.482 88.7448 130.059 79.3264 125.646C69.4341 121.01 69.0712 90.5952 53.733 80.9916C46.7093 76.5931 39.0769 75.2085 30.6167 76.8341C32.7902 72.0729 35.8768 67.9959 40.226 66.7512C45.3914 65.272 55.4734 66.7672 74.1697 82.2821C75.077 83.035 76.2271 83.5066 77.4525 83.6282C102.08 86.0714 142.452 51.5194 188.263 24.1518C186.314 73.5633 168.345 98.8503 115.084 96.3624V96.3624Z" fill="#2E58FF"/>
<path d="M219.688 110H206.234V42.7812H253.297V56.2344H219.688V69.6875H239.844V83.1406H219.688V110ZM268.203 110H255.406V59.7969H258.5L262.719 65.75C264.781 63.875 267.125 62.4375 269.75 61.4375C272.375 60.4062 275.094 59.8906 277.906 59.8906H289.203V72.6406H277.906C276.562 72.6406 275.297 72.8906 274.109 73.3906C272.922 73.8906 271.891 74.5781 271.016 75.4531C270.141 76.3281 269.453 77.3594 268.953 78.5469C268.453 79.7344 268.203 81 268.203 82.3438V110ZM314.188 97.7188C314.688 97.875 315.188 97.9844 315.688 98.0469C316.188 98.0781 316.688 98.0938 317.188 98.0938C318.438 98.0938 319.641 97.9219 320.797 97.5781C321.953 97.2344 323.031 96.75 324.031 96.125C325.062 95.4688 325.969 94.6875 326.75 93.7812C327.562 92.8438 328.219 91.8125 328.719 90.6875L338.094 100.109C336.906 101.797 335.531 103.312 333.969 104.656C332.438 106 330.766 107.141 328.953 108.078C327.172 109.016 325.281 109.719 323.281 110.188C321.312 110.688 319.281 110.938 317.188 110.938C313.656 110.938 310.328 110.281 307.203 108.969C304.109 107.656 301.391 105.828 299.047 103.484C296.734 101.141 294.906 98.3594 293.562 95.1406C292.219 91.8906 291.547 88.3281 291.547 84.4531C291.547 80.4844 292.219 76.8594 293.562 73.5781C294.906 70.2969 296.734 67.5 299.047 65.1875C301.391 62.875 304.109 61.0781 307.203 59.7969C310.328 58.5156 313.656 57.875 317.188 57.875C319.281 57.875 321.328 58.125 323.328 58.625C325.328 59.125 327.219 59.8438 329 60.7812C330.812 61.7188 332.5 62.875 334.062 64.25C335.625 65.5938 337 67.1094 338.188 68.7969L314.188 97.7188ZM320.75 71.3281C320.156 71.1094 319.562 70.9688 318.969 70.9062C318.406 70.8438 317.812 70.8125 317.188 70.8125C315.438 70.8125 313.781 71.1406 312.219 71.7969C310.688 72.4219 309.344 73.3281 308.188 74.5156C307.062 75.7031 306.172 77.1406 305.516 78.8281C304.859 80.4844 304.531 82.3594 304.531 84.4531C304.531 84.9219 304.547 85.4531 304.578 86.0469C304.641 86.6406 304.719 87.25 304.812 87.875C304.938 88.4688 305.078 89.0469 305.234 89.6094C305.391 90.1719 305.594 90.6719 305.844 91.1094L320.75 71.3281ZM364.25 97.7188C364.75 97.875 365.25 97.9844 365.75 98.0469C366.25 98.0781 366.75 98.0938 367.25 98.0938C368.5 98.0938 369.703 97.9219 370.859 97.5781C372.016 97.2344 373.094 96.75 374.094 96.125C375.125 95.4688 376.031 94.6875 376.812 93.7812C377.625 92.8438 378.281 91.8125 378.781 90.6875L388.156 100.109C386.969 101.797 385.594 103.312 384.031 104.656C382.5 106 380.828 107.141 379.016 108.078C377.234 109.016 375.344 109.719 373.344 110.188C371.375 110.688 369.344 110.938 367.25 110.938C363.719 110.938 360.391 110.281 357.266 108.969C354.172 107.656 351.453 105.828 349.109 103.484C346.797 101.141 344.969 98.3594 343.625 95.1406C342.281 91.8906 341.609 88.3281 341.609 84.4531C341.609 80.4844 342.281 76.8594 343.625 73.5781C344.969 70.2969 346.797 67.5 349.109 65.1875C351.453 62.875 354.172 61.0781 357.266 59.7969C360.391 58.5156 363.719 57.875 367.25 57.875C369.344 57.875 371.391 58.125 373.391 58.625C375.391 59.125 377.281 59.8438 379.062 60.7812C380.875 61.7188 382.562 62.875 384.125 64.25C385.688 65.5938 387.062 67.1094 388.25 68.7969L364.25 97.7188ZM370.812 71.3281C370.219 71.1094 369.625 70.9688 369.031 70.9062C368.469 70.8438 367.875 70.8125 367.25 70.8125C365.5 70.8125 363.844 71.1406 362.281 71.7969C360.75 72.4219 359.406 73.3281 358.25 74.5156C357.125 75.7031 356.234 77.1406 355.578 78.8281C354.922 80.4844 354.594 82.3594 354.594 84.4531C354.594 84.9219 354.609 85.4531 354.641 86.0469C354.703 86.6406 354.781 87.25 354.875 87.875C355 88.4688 355.141 89.0469 355.297 89.6094C355.453 90.1719 355.656 90.6719 355.906 91.1094L370.812 71.3281Z" fill="#2E58FF"/>
<path d="M407.609 110H394.719V39.8281H407.609V110ZM466.016 110H462.922L457.953 103.109C456.734 104.203 455.438 105.234 454.062 106.203C452.719 107.141 451.297 107.969 449.797 108.688C448.297 109.375 446.75 109.922 445.156 110.328C443.594 110.734 442 110.938 440.375 110.938C436.844 110.938 433.516 110.344 430.391 109.156C427.297 107.969 424.578 106.25 422.234 104C419.922 101.719 418.094 98.9375 416.75 95.6562C415.406 92.375 414.734 88.6406 414.734 84.4531C414.734 80.5469 415.406 76.9688 416.75 73.7188C418.094 70.4375 419.922 67.625 422.234 65.2812C424.578 62.9375 427.297 61.125 430.391 59.8438C433.516 58.5312 436.844 57.875 440.375 57.875C442 57.875 443.609 58.0781 445.203 58.4844C446.797 58.8906 448.344 59.4531 449.844 60.1719C451.344 60.8906 452.766 61.7344 454.109 62.7031C455.484 63.6719 456.766 64.7188 457.953 65.8438L462.922 59.8906H466.016V110ZM453.125 84.4531C453.125 82.7031 452.781 81.0156 452.094 79.3906C451.438 77.7344 450.531 76.2812 449.375 75.0312C448.219 73.75 446.859 72.7344 445.297 71.9844C443.766 71.2031 442.125 70.8125 440.375 70.8125C438.625 70.8125 436.969 71.1094 435.406 71.7031C433.875 72.2969 432.531 73.1719 431.375 74.3281C430.25 75.4844 429.359 76.9219 428.703 78.6406C428.047 80.3281 427.719 82.2656 427.719 84.4531C427.719 86.6406 428.047 88.5938 428.703 90.3125C429.359 92 430.25 93.4219 431.375 94.5781C432.531 95.7344 433.875 96.6094 435.406 97.2031C436.969 97.7969 438.625 98.0938 440.375 98.0938C442.125 98.0938 443.766 97.7188 445.297 96.9688C446.859 96.1875 448.219 95.1719 449.375 93.9219C450.531 92.6406 451.438 91.1875 452.094 89.5625C452.781 87.9062 453.125 86.2031 453.125 84.4531ZM488.609 110H475.812V59.7969H478.906L483.125 64.6719C485.188 62.7969 487.516 61.3594 490.109 60.3594C492.734 59.3281 495.469 58.8125 498.312 58.8125C501.375 58.8125 504.266 59.4062 506.984 60.5938C509.703 61.75 512.078 63.3594 514.109 65.4219C516.141 67.4531 517.734 69.8438 518.891 72.5938C520.078 75.3125 520.672 78.2188 520.672 81.3125V110H507.875V81.3125C507.875 80 507.625 78.7656 507.125 77.6094C506.625 76.4219 505.938 75.3906 505.062 74.5156C504.188 73.6406 503.172 72.9531 502.016 72.4531C500.859 71.9531 499.625 71.7031 498.312 71.7031C496.969 71.7031 495.703 71.9531 494.516 72.4531C493.328 72.9531 492.297 73.6406 491.422 74.5156C490.547 75.3906 489.859 76.4219 489.359 77.6094C488.859 78.7656 488.609 80 488.609 81.3125V110ZM573.688 69.7812L564.312 79.2031C563.844 77.8906 563.203 76.7188 562.391 75.6875C561.578 74.625 560.656 73.7344 559.625 73.0156C558.625 72.2969 557.531 71.75 556.344 71.375C555.156 71 553.938 70.8125 552.688 70.8125C550.938 70.8125 549.281 71.1719 547.719 71.8906C546.188 72.6094 544.844 73.625 543.688 74.9375C542.562 76.2188 541.672 77.75 541.016 79.5312C540.359 81.3125 540.031 83.2812 540.031 85.4375C540.031 87.1875 540.359 88.8281 541.016 90.3594C541.672 91.8906 542.562 93.2344 543.688 94.3906C544.844 95.5469 546.188 96.4531 547.719 97.1094C549.281 97.7656 550.938 98.0938 552.688 98.0938C553.938 98.0938 555.141 97.9219 556.297 97.5781C557.453 97.2344 558.531 96.75 559.531 96.125C560.562 95.4688 561.469 94.6875 562.25 93.7812C563.062 92.8438 563.719 91.8125 564.219 90.6875L573.594 100.109C572.406 101.797 571.031 103.312 569.469 104.656C567.938 106 566.266 107.141 564.453 108.078C562.672 109.016 560.781 109.719 558.781 110.188C556.812 110.688 554.781 110.938 552.688 110.938C549.156 110.938 545.828 110.281 542.703 108.969C539.609 107.625 536.891 105.797 534.547 103.484C532.234 101.172 530.406 98.4688 529.062 95.375C527.719 92.2812 527.047 88.9688 527.047 85.4375C527.047 81.5938 527.719 78 529.062 74.6562C530.406 71.3125 532.234 68.4062 534.547 65.9375C536.891 63.4375 539.609 61.4688 542.703 60.0312C545.828 58.5938 549.156 57.875 552.688 57.875C554.781 57.875 556.828 58.1406 558.828 58.6719C560.859 59.2031 562.781 59.9844 564.594 61.0156C566.438 62.0156 568.125 63.25 569.656 64.7188C571.219 66.1875 572.562 67.875 573.688 69.7812ZM599.188 97.7188C599.688 97.875 600.188 97.9844 600.688 98.0469C601.188 98.0781 601.688 98.0938 602.188 98.0938C603.438 98.0938 604.641 97.9219 605.797 97.5781C606.953 97.2344 608.031 96.75 609.031 96.125C610.062 95.4688 610.969 94.6875 611.75 93.7812C612.562 92.8438 613.219 91.8125 613.719 90.6875L623.094 100.109C621.906 101.797 620.531 103.312 618.969 104.656C617.438 106 615.766 107.141 613.953 108.078C612.172 109.016 610.281 109.719 608.281 110.188C606.312 110.688 604.281 110.938 602.188 110.938C598.656 110.938 595.328 110.281 592.203 108.969C589.109 107.656 586.391 105.828 584.047 103.484C581.734 101.141 579.906 98.3594 578.562 95.1406C577.219 91.8906 576.547 88.3281 576.547 84.4531C576.547 80.4844 577.219 76.8594 578.562 73.5781C579.906 70.2969 581.734 67.5 584.047 65.1875C586.391 62.875 589.109 61.0781 592.203 59.7969C595.328 58.5156 598.656 57.875 602.188 57.875C604.281 57.875 606.328 58.125 608.328 58.625C610.328 59.125 612.219 59.8438 614 60.7812C615.812 61.7188 617.5 62.875 619.062 64.25C620.625 65.5938 622 67.1094 623.188 68.7969L599.188 97.7188ZM605.75 71.3281C605.156 71.1094 604.562 70.9688 603.969 70.9062C603.406 70.8438 602.812 70.8125 602.188 70.8125C600.438 70.8125 598.781 71.1406 597.219 71.7969C595.688 72.4219 594.344 73.3281 593.188 74.5156C592.062 75.7031 591.172 77.1406 590.516 78.8281C589.859 80.4844 589.531 82.3594 589.531 84.4531C589.531 84.9219 589.547 85.4531 589.578 86.0469C589.641 86.6406 589.719 87.25 589.812 87.875C589.938 88.4688 590.078 89.0469 590.234 89.6094C590.391 90.1719 590.594 90.6719 590.844 91.1094L605.75 71.3281ZM642.453 110H629.656V59.7969H632.75L636.969 65.75C639.031 63.875 641.375 62.4375 644 61.4375C646.625 60.4062 649.344 59.8906 652.156 59.8906H663.453V72.6406H652.156C650.812 72.6406 649.547 72.8906 648.359 73.3906C647.172 73.8906 646.141 74.5781 645.266 75.4531C644.391 76.3281 643.703 77.3594 643.203 78.5469C642.703 79.7344 642.453 81 642.453 82.3438V110Z" fill="white"/>
<path d="M584.383 146H579.338V120.793H584.383V130.883H594.455V120.793H599.5V146H594.455V135.928H584.383V146ZM624.355 146H618.959L609.238 129.406V146H604.193V120.793H609.59L619.311 137.404V120.793H624.355V146ZM649.246 133.396C649.246 134.557 649.094 135.676 648.789 136.754C648.496 137.82 648.074 138.822 647.523 139.76C646.973 140.686 646.316 141.535 645.555 142.309C644.793 143.07 643.943 143.727 643.006 144.277C642.068 144.828 641.061 145.256 639.982 145.561C638.916 145.854 637.803 146 636.643 146H629.049V120.793H636.643C637.803 120.793 638.916 120.945 639.982 121.25C641.061 121.543 642.068 121.965 643.006 122.516C643.943 123.066 644.793 123.729 645.555 124.502C646.316 125.264 646.973 126.113 647.523 127.051C648.074 127.977 648.496 128.979 648.789 130.057C649.094 131.123 649.246 132.236 649.246 133.396ZM644.201 133.396C644.201 132.354 644.002 131.375 643.604 130.461C643.217 129.547 642.678 128.75 641.986 128.07C641.307 127.379 640.504 126.834 639.578 126.436C638.664 126.037 637.686 125.838 636.643 125.838H634.129V140.955H636.643C637.686 140.955 638.664 140.762 639.578 140.375C640.504 139.977 641.307 139.438 641.986 138.758C642.678 138.066 643.217 137.264 643.604 136.35C644.002 135.424 644.201 134.439 644.201 133.396Z" fill="white"/>
</svg>
