<svg width="400" height="300" viewBox="0 0 400 300" fill="none" xmlns="http://www.w3.org/2000/svg">
<path d="M203.45 291.79L350.95 204.62C355.65 201.98 359.67 197.62 355.1 194.82L207.1 109.51C204.88 108.13 201.51 107.23 199.25 108.51L44.38 198.4C39.68 201.13 38.84 208.74 43.54 211.47L184 291.65C186.95 293.363 190.295 294.277 193.706 294.301C197.117 294.326 200.476 293.46 203.45 291.79V291.79Z" fill="#2FC8EC"/>
<path d="M182.56 156.18L204 166.5C204.806 166.888 205.492 167.488 205.983 168.236C206.475 168.983 206.754 169.851 206.789 170.745C206.825 171.639 206.617 172.526 206.188 173.311C205.758 174.096 205.123 174.749 204.35 175.2L153.56 204.83C152.463 205.47 151.161 205.662 149.926 205.366C148.691 205.07 147.617 204.308 146.93 203.24L134.57 184" fill="#56403D"/>
<path d="M66 106.56L236.88 8.10001C238.052 7.42443 239.381 7.06919 240.734 7.06995C242.087 7.07071 243.416 7.42745 244.588 8.10435C245.759 8.78124 246.732 9.75446 247.408 10.9262C248.084 12.098 248.44 13.4271 248.44 14.78V117.2C248.44 118.324 248.145 119.429 247.583 120.403C247.021 121.378 246.213 122.187 245.24 122.75L63.07 227.9C62.4413 228.261 61.7289 228.45 61.0041 228.449C60.2793 228.448 59.5675 228.257 58.9398 227.894C58.3121 227.532 57.7906 227.011 57.4274 226.384C57.0641 225.756 56.8719 225.045 56.87 224.32V122.32C56.8733 119.123 57.719 115.982 59.3217 113.216C60.9245 110.449 63.2279 108.153 66 106.56V106.56Z" fill="#105A6B"/>
<path d="M236.86 15.84L71.17 111.18C69.4007 112.199 67.9311 113.667 66.9094 115.434C65.8877 117.202 65.3498 119.208 65.35 121.25V198C65.3515 198.735 65.5457 199.456 65.9131 200.092C66.2805 200.728 66.8083 201.257 67.4438 201.625C68.0793 201.993 68.8003 202.189 69.5349 202.191C70.2694 202.194 70.9918 202.004 71.63 201.64L240.63 104.64C241.262 104.278 241.787 103.755 242.152 103.124C242.517 102.494 242.71 101.779 242.71 101.05V19.22C242.714 18.534 242.536 17.8593 242.194 17.2643C241.853 16.6693 241.36 16.1751 240.766 15.8319C240.172 15.4887 239.498 15.3087 238.812 15.3101C238.126 15.3116 237.453 15.4944 236.86 15.84Z" fill="white"/>
<path d="M171.443 157.273C171.873 155.038 170.639 152.922 168.687 152.546C166.734 152.17 164.803 153.677 164.373 155.911C163.942 158.145 165.176 160.262 167.129 160.638C169.081 161.013 171.012 159.507 171.443 157.273Z" fill="#AB643C"/>
<path d="M174.49 142.64C177.886 132.064 184.632 122.881 193.71 116.48C204.58 109.06 216.32 109.62 218.81 100.16C221.63 89.41 229.59 74.75 242.7 71.1V100.33C242.701 101.438 242.408 102.526 241.851 103.483C241.294 104.441 240.493 105.233 239.53 105.78L174.49 142.64Z" fill="#3D44AE"/>
<path d="M65.34 150C65.34 150 85.41 141.41 89.09 125.9C91.43 116.06 96.22 104.44 106.09 99.95C109.09 98.57 112.31 97.87 114.94 95.73C117.291 93.6975 119.384 91.3835 121.17 88.84C123.523 85.6852 125.611 82.3404 127.41 78.84L68.18 112.84C67.3295 113.327 66.6228 114.031 66.1312 114.879C65.6395 115.727 65.3804 116.69 65.38 117.67L65.34 150Z" fill="#3F46AE"/>
<path d="M242.91 68.23C242.91 67.97 242.91 67.71 242.91 67.44C234.22 68.34 229.43 76.26 226.07 83.75C221.38 94.22 215.64 105.06 203.94 108.75C198.94 110.34 193.88 110.81 189.46 113.89C186.079 116.38 183.204 119.492 180.99 123.06C176.06 130.57 173.2 139.52 167.63 146.51L168.51 146.19C169.159 145.823 169.827 145.49 170.51 145.19C170.75 145.08 170.98 145 171.21 144.92C173.935 140.586 176.39 136.087 178.56 131.45C180.91 126.79 183.56 122.07 187.27 118.36C192.27 113.43 198.09 112.65 204.47 110.7C212.53 108.24 218.41 102.18 222.67 95.11C227.94 86.36 230.95 70.77 242.91 69.45V68.23Z" fill="#FFB3A6"/>
<path d="M138.38 72.31C137.685 72.8352 136.934 73.2813 136.14 73.64C133.373 81.653 127.862 88.4292 120.58 92.77C113.04 97.2 103.94 98.87 97.22 104.71C90 111 87.48 121.64 83.44 130C79.16 138.85 73.63 147.15 65.12 152.18C65.2209 152.913 65.2843 153.651 65.31 154.39C73.16 150.06 78.8 142.99 83.06 135.14C88.44 125.23 91.06 111.24 100.74 104.52C108.43 99.2 118.03 97.61 125.49 91.85C131.923 86.8218 136.577 79.8654 138.77 72L138.38 72.31Z" fill="#FFB3A6"/>
<path d="M84.38 179.35V179.6C84.38 180.36 84.5784 181.106 84.9555 181.765C85.3326 182.424 85.8754 182.974 86.5302 183.359C87.1849 183.744 87.9288 183.951 88.6882 183.96C89.4477 183.969 90.1963 183.779 90.86 183.41L125.13 164.36C125.809 163.982 126.375 163.43 126.769 162.76C127.162 162.09 127.37 161.327 127.37 160.55V160.55C127.37 159.793 127.172 159.048 126.797 158.39C126.422 157.732 125.881 157.184 125.229 156.798C124.577 156.412 123.836 156.203 123.079 156.191C122.321 156.18 121.574 156.365 120.91 156.73L86.64 175.53C85.9558 175.906 85.3851 176.459 84.9875 177.131C84.59 177.803 84.3802 178.569 84.38 179.35V179.35Z" fill="#FFB3A6"/>
<path d="M131.64 124.83L83.82 152.06C83.5627 152.216 83.3782 152.469 83.3069 152.761C83.2357 153.054 83.2835 153.363 83.44 153.62C83.5965 153.877 83.8487 154.062 84.1413 154.133C84.4339 154.204 84.7427 154.156 85 154L132.82 126.77C133.048 126.605 133.207 126.362 133.265 126.086C133.323 125.811 133.276 125.524 133.133 125.281C132.991 125.038 132.763 124.858 132.494 124.774C132.225 124.691 131.935 124.711 131.68 124.83H131.64Z" fill="#B3B3B3"/>
<path d="M131.64 131.89L83.82 159.13C83.5627 159.286 83.3782 159.539 83.3069 159.831C83.2357 160.124 83.2835 160.433 83.44 160.69C83.5965 160.947 83.8487 161.132 84.1413 161.203C84.4339 161.274 84.7427 161.226 85 161.07L132.82 133.84C133.048 133.675 133.207 133.432 133.265 133.156C133.323 132.881 133.276 132.594 133.133 132.351C132.991 132.108 132.763 131.928 132.494 131.844C132.225 131.761 131.935 131.781 131.68 131.9L131.64 131.89Z" fill="#B3B3B3"/>
<path d="M131.64 139.08L83.82 166.32C83.5627 166.476 83.3782 166.729 83.3069 167.021C83.2357 167.314 83.2835 167.623 83.44 167.88C83.5965 168.137 83.8487 168.322 84.1413 168.393C84.4339 168.464 84.7427 168.416 85 168.26L132.77 141C132.998 140.835 133.157 140.592 133.215 140.316C133.273 140.041 133.226 139.754 133.083 139.511C132.941 139.268 132.713 139.088 132.444 139.004C132.175 138.921 131.885 138.941 131.63 139.06L131.64 139.08Z" fill="#B3B3B3"/>
<path d="M207.986 83.2243C212.383 74.3393 211.321 64.8469 205.614 62.0225C199.907 59.1981 191.715 64.1113 187.318 72.9963C182.921 81.8813 183.983 91.3737 189.691 94.1981C195.398 97.0225 203.589 92.1094 207.986 83.2243Z" stroke="#A2C609" stroke-width="2" stroke-miterlimit="10"/>
<path d="M187.126 99.6699C192.072 89.6761 190.271 78.6991 183.103 75.1521C175.936 71.605 166.116 76.8312 161.171 86.825C156.225 96.8188 158.026 107.796 165.193 111.343C172.361 114.89 182.18 109.664 187.126 99.6699Z" fill="#C5E0FE"/>
<path d="M174.15 93.25L184.15 75.74C184.15 75.74 177.52 70.51 167.56 78.5L174.15 93.25Z" fill="#F9AA43"/>
<path d="M174.15 93.25L160.48 88.33C160.48 88.33 162.06 83.65 167.54 78.5L174.15 93.25Z" fill="#768CFB"/>
<path d="M146.12 78.88L157.76 71.8C159.41 70.8 157.9 68.2 156.25 69.21L144.6 76.29C142.95 77.29 144.46 79.89 146.11 78.88H146.12Z" fill="#E6E6E6"/>
<path d="M192.58 51.47L204.22 44.39C205.87 43.39 204.36 40.79 202.71 41.8L191.07 48.88C189.42 49.88 190.93 52.48 192.58 51.47V51.47Z" fill="#E6E6E6"/>
<path d="M218 38.29L229.64 31.21C231.29 30.21 229.78 27.61 228.13 28.62L216.48 35.7C214.83 36.7 216.34 39.3 217.99 38.29H218Z" fill="#E6E6E6"/>
<path d="M168.07 65.91L179.71 58.83C181.36 57.83 179.85 55.23 178.2 56.24L166.56 63.32C164.91 64.32 166.42 66.92 168.07 65.91Z" fill="#E6E6E6"/>
<path d="M193.92 279.3V255.62L215.11 243.78V267.27L193.92 279.3Z" fill="#B24F28"/>
<path d="M193.92 255.62L173.3 243.78C173.3 243.78 172.73 267.65 173.3 268.03C173.87 268.41 193.92 279.3 193.92 279.3V255.62Z" fill="#C96336"/>
<path d="M173.29 243.78L193.92 231.18L215.11 243.78L193.92 255.62L173.29 243.78Z" fill="#DB7D58"/>
<path d="M181.15 238.99L202.62 250.76V263.12L208.79 260V247.31L187.32 235.21L181.15 238.99Z" fill="#FDEDCB"/>
<path d="M239.08 108.11C239.08 108.11 241.98 107.6 242.68 106.65C243.38 105.7 242.68 105.17 242.68 105.17C242.68 105.17 245.53 103.82 245.1 102.88C244.67 101.94 242.27 99.62 240.73 99.62C239.19 99.62 234.21 104.68 234.21 104.68" fill="#EEAD97"/>
<path d="M235.5 236.83C235.475 237.108 235.345 237.365 235.137 237.551C234.929 237.736 234.659 237.836 234.38 237.83C233.38 237.91 223.76 233.78 221.38 239.38C221.241 239.726 221.228 240.11 221.343 240.464C221.458 240.819 221.694 241.122 222.01 241.32C226.782 244.389 232.181 246.35 237.81 247.06C239.734 247.455 241.735 247.202 243.5 246.34L243.05 235.78L235.5 236.83Z" fill="#C24327"/>
<path d="M258.72 231.94C258.72 231.94 249.72 226.08 248.17 229.8C246.96 232.67 257.7 241.02 261.65 241.68C265.6 242.34 266.14 238.19 266.14 238.19L266.01 231.38" fill="#C24327"/>
<path d="M241.13 146.65C241.13 146.65 232.13 166.03 232.29 236.03C232.29 236.03 234.12 240.87 247.12 237.54L252.4 175L254.68 232.68C254.68 232.68 260.79 237.21 270.28 231.77C270.28 231.77 268.15 154.6 262.96 140.77" fill="#333856"/>
<path d="M263.39 143.11C265.64 133.58 270.28 108.97 265.31 105.22C260.98 101.95 250.89 105.5 243.18 110.71C236.86 114.98 239.44 139.85 240.53 148.48C248.91 149.51 256.72 148.05 263.39 143.11Z" fill="#C24327"/>
<path d="M265.15 105.17C265.15 105.17 268.31 106.73 269.54 112.17C270.77 117.61 272.84 131.45 269.59 135.17C266.34 138.89 260.77 133.17 260.36 132.78" fill="#C24327"/>
<path d="M246.88 108.54C246.88 108.54 235.19 114.62 234.81 114.75C234.43 114.88 240.32 110.24 240.32 110.24C240.32 110.24 239.65 102.03 233.55 103.96C233.55 103.96 213.9 119.05 224.84 128.52C230.07 133.04 246.84 125.85 246.84 125.85" fill="#C24327"/>
<path d="M244.48 91.31C244.48 91.31 244.26 103.96 247.79 104.31C249.176 104.537 250.599 104.309 251.844 103.66C253.09 103.011 254.092 101.976 254.7 100.71" fill="#EEAD97"/>
<path d="M249.59 102.69V108.69C249.59 108.69 252.82 109.93 257.34 106.92V102" fill="#EEAD97"/>
<path d="M245.12 93.65C245.12 93.65 240.82 89.18 243.63 85.37C246.44 81.56 249.63 83.55 249.63 83.55C249.63 83.55 250.29 81.89 253.63 81.55C256.97 81.21 258.26 84.55 259.63 85.36C261 86.17 263.11 88.62 263.27 90.63C263.43 92.64 260.46 103.89 256.98 104.72C253.5 105.55 248.93 106.89 245.12 93.65Z" fill="#C24327"/>
<path opacity="0.32" d="M278.28 210C281.082 211.409 283.799 212.978 286.42 214.7C290.57 217.46 296.76 219.62 300.59 222.8L330.41 205.65L290.17 199.16L275 208.09C276.12 208.697 277.213 209.333 278.28 210Z" fill="url(#paint0_linear)"/>
<path d="M309 218.43V194.16L287.28 182V206.1L309 218.43Z" fill="#105A6B"/>
<path d="M309 194.16L330.15 182C330.15 182 330.74 206.47 330.15 206.86C329.56 207.25 309 218.43 309 218.43V194.16Z" fill="#105A6B"/>
<path d="M330.15 182.02L309.01 169.1L287.28 182.02L309.01 194.16L330.15 182.02Z" fill="#105A6B"/>
<path d="M287.28 182.02L279.42 168.39L301.69 155.3L309.01 169.1L287.28 182.02Z" fill="#105A6B"/>
<path opacity="0.49" d="M309 194.16L330.15 182C330.15 182 330.74 206.47 330.15 206.86C329.56 207.25 309 218.43 309 218.43V194.16Z" fill="#606060"/>
<path opacity="0.8" d="M330.41 181.59L309.27 168.67L287.54 181.59L309.27 193.73L330.41 181.59Z" fill="#606060"/>
<path d="M330.15 182.02L335.89 169.77L312.5 182.51L309.01 194.16L330.15 182.02Z" fill="#105A6B"/>
<defs>
<linearGradient id="paint0_linear" x1="283.5" y1="234.25" x2="300.16" y2="210.55" gradientUnits="userSpaceOnUse">
<stop stop-color="white" stop-opacity="0"/>
<stop offset="1" stop-color="#D43500"/>
</linearGradient>
</defs>
</svg>
