<svg width="184" height="166" viewBox="0 0 184 166" fill="none" xmlns="http://www.w3.org/2000/svg">
<path d="M81.5874 5.96939C78.3967 3.20595 73.0763 4.5756 71.9803 8.43997L51.4926 80.6486C50.5557 83.9485 53.3245 87.1603 57.0947 87.1603C57.4247 87.1603 54.8669 87.3211 94.8869 84.6819C97.2636 84.5254 99.2903 83.0696 99.9923 81.0152C109.689 52.637 105.621 26.7773 81.5874 5.96939V5.96939Z" fill="#80B9ED"/>
<path d="M183.999 12.4788C183.987 8.39759 179 5.90124 175.155 8.06431C131.481 32.6378 85.5664 70.8096 64.4303 71.3141C46.6193 56.8904 32.312 51.4891 20.7288 54.804C10.7295 57.6656 3.80122 66.8748 0.136659 82.1758C-0.890272 86.4647 4.07558 89.9172 8.41031 87.9293C17.7756 83.6348 24.5444 83.4972 30.9999 87.4786C43.4416 96.4469 41.5801 125.215 57.9951 132.906C68.752 137.947 82.0537 138.34 97.6229 134.092C100.139 145.671 112.806 154.362 123.841 160.673C125.255 161.481 127.03 161.718 128.699 161.236C154.9 153.677 175.76 133.824 163.212 112.544C161.94 110.385 159.177 109.312 156.563 109.965C146.112 112.576 135.064 111.804 122.809 107.604L117.568 104.49C170.945 99.8397 184.132 61.0593 183.999 12.4788V12.4788Z" fill="#80B9ED"/>
<path d="M175.155 8.06431C131.481 32.6378 85.5664 70.8096 64.4303 71.3141C46.6193 56.8904 32.312 51.4891 20.7288 54.804C10.7295 57.6656 3.80122 66.8748 0.136659 82.1758C-0.890272 86.4647 4.07558 89.9172 8.41031 87.9293C17.7756 83.6348 24.5444 83.4972 30.9999 87.4786C33.7608 89.4688 35.8635 92.5802 37.622 96.2245C53.1323 98.0986 69.9159 103.134 85.2418 114.069C112.606 133.595 140.717 142.287 161.082 141.304C168.215 131.892 168.617 121.71 163.213 112.544C161.94 110.385 159.178 109.312 156.564 109.965C146.112 112.576 135.065 111.804 122.809 107.604L117.569 104.49C171.087 99.8273 184.132 60.8373 183.999 12.4788C183.987 8.39759 179 5.90124 175.155 8.06431V8.06431Z" fill="#8BC4FF"/>
<path d="M183.999 12.4788C183.987 8.39759 179 5.90124 175.155 8.06431C134.799 30.7708 94.3331 63.8111 70.6204 70.2875C76.2633 74.4911 81.6347 79.5252 86.4791 85.5657C96.0038 97.4415 107.315 102.792 118.588 104.393C171.281 99.3293 184.131 60.4844 183.999 12.4788V12.4788Z" fill="#A2D0F9"/>
<path d="M175.155 8.06431C157.102 18.2219 139.574 30.0821 122.542 41.3716C139.672 52.7263 160.925 65.7556 179.048 55.6766C182.424 43.7835 184.046 29.6194 183.999 12.4788C183.987 8.39759 179 5.90124 175.155 8.06431V8.06431Z" fill="#B4DCF9"/>
<path d="M183.999 12.4788C183.987 8.39758 179 5.90123 175.155 8.0643C150.257 22.0732 125.981 39.563 104.854 52.8763C104.556 34.1154 96.1799 18.6031 81.5874 5.96939C78.3967 3.20595 73.0763 4.5756 71.9803 8.43997L55.9474 64.9482C27.2706 45.2281 7.2565 52.4478 0.136659 82.1754C-0.890272 86.4644 4.07558 89.9169 8.41031 87.9289C17.7756 83.6344 24.5444 83.4968 30.9999 87.4783C43.4416 96.4465 41.5801 125.214 57.9951 132.906C68.752 137.947 82.0537 138.34 97.6229 134.092C100.139 145.671 112.806 154.362 123.841 160.673C125.255 161.481 127.03 161.717 128.699 161.236C154.9 153.677 175.76 133.823 163.212 112.543C161.94 110.384 159.177 109.312 156.563 109.965C146.112 112.575 135.064 111.804 122.809 107.604L117.568 104.489C170.945 99.8397 184.132 61.0593 183.999 12.4788V12.4788ZM80.5276 20.396C90.3895 31.742 94.5218 44.8596 93 60.0494C85.9232 64.111 74.4397 70.2445 66.1165 71.1873L80.5276 20.396ZM99.0839 94.3624C93.2137 94.0858 90.6971 101.014 95.6026 103.93C118.957 117.811 117.237 116.849 118.057 117.136C130.86 121.62 143.138 122.932 154.637 121.055C158.911 134.49 142.308 145.729 127.727 150.511C109.013 139.316 108.03 132.208 108.986 127.784C109.857 123.751 105.441 120.428 101.199 121.928C85.4869 127.482 72.7448 128.059 63.3264 123.646C53.4341 119.01 53.0712 88.5952 37.733 78.9916C30.7093 74.5931 23.0769 73.2085 14.6167 74.8341C16.7902 70.0729 19.8768 65.9959 24.226 64.7512C29.3914 63.272 39.4734 64.7672 58.1697 80.2821C59.077 81.035 60.2271 81.5066 61.4525 81.6282C86.0804 84.0714 126.452 49.5194 172.263 22.1518C170.314 71.5633 152.345 96.8503 99.0839 94.3624V94.3624Z" fill="#2E58FF"/>
</svg>
