<svg width="268" height="253" viewBox="0 0 268 253" fill="none" xmlns="http://www.w3.org/2000/svg">
<path d="M134 156.851C208.006 156.851 268 127.911 268 92.2117C268 56.5124 208.006 27.5723 134 27.5723C59.9938 27.5723 0 56.5124 0 92.2117C0 127.911 59.9938 156.851 134 156.851Z" fill="#21214F"/>
<path d="M134 148.784C208.006 148.784 268 119.844 268 84.1443C268 48.4449 208.006 19.5048 134 19.5048C59.9938 19.5048 0 48.4449 0 84.1443C0 119.844 59.9938 148.784 134 148.784Z" fill="#3A3A6C"/>
<path d="M28.3492 79.6843C32.4361 79.6843 35.7492 76.6403 35.7492 72.8854C35.7492 69.1304 32.4361 66.0864 28.3492 66.0864C24.2622 66.0864 20.949 69.1304 20.949 72.8854C20.949 76.6403 24.2622 79.6843 28.3492 79.6843Z" fill="#FFCF49"/>
<path d="M238.68 79.6843C242.767 79.6843 246.08 76.6403 246.08 72.8854C246.08 69.1304 242.767 66.0864 238.68 66.0864C234.593 66.0864 231.28 69.1304 231.28 72.8854C231.28 76.6403 234.593 79.6843 238.68 79.6843Z" fill="#FFCF49"/>
<path d="M43.1708 111.479C47.2578 111.479 50.5709 108.435 50.5709 104.68C50.5709 100.925 47.2578 97.8809 43.1708 97.8809C39.0838 97.8809 35.7707 100.925 35.7707 104.68C35.7707 108.435 39.0838 111.479 43.1708 111.479Z" fill="#FFCF49"/>
<path d="M75.6406 126.286C79.7276 126.286 83.0407 123.242 83.0407 119.487C83.0407 115.732 79.7276 112.688 75.6406 112.688C71.5537 112.688 68.2405 115.732 68.2405 119.487C68.2405 123.242 71.5537 126.286 75.6406 126.286Z" fill="#FFCF49"/>
<path d="M126.6 135.82C130.687 135.82 134 132.776 134 129.021C134 125.266 130.687 122.222 126.6 122.222C122.513 122.222 119.2 125.266 119.2 129.021C119.2 132.776 122.513 135.82 126.6 135.82Z" fill="#FFCF49"/>
<path d="M175.359 129.001C179.445 129.001 182.759 125.957 182.759 122.202C182.759 118.447 179.445 115.403 175.359 115.403C171.272 115.403 167.958 118.447 167.958 122.202C167.958 125.957 171.272 129.001 175.359 129.001Z" fill="#FFCF49"/>
<path d="M213.956 107.812C218.043 107.812 221.356 104.768 221.356 101.013C221.356 97.2578 218.043 94.2138 213.956 94.2138C209.869 94.2138 206.555 97.2578 206.555 101.013C206.555 104.768 209.869 107.812 213.956 107.812Z" fill="#FFCF49"/>
<path d="M213.956 54.9267C218.043 54.9267 221.356 51.8827 221.356 48.1277C221.356 44.3728 218.043 41.3288 213.956 41.3288C209.869 41.3288 206.555 44.3728 206.555 48.1277C206.555 51.8827 209.869 54.9267 213.956 54.9267Z" fill="#FFCF49"/>
<path d="M56.0077 54.9267C60.0947 54.9267 63.4078 51.8827 63.4078 48.1277C63.4078 44.3728 60.0947 41.3288 56.0077 41.3288C51.9207 41.3288 48.6076 44.3728 48.6076 48.1277C48.6076 51.8827 51.9207 54.9267 56.0077 54.9267Z" fill="#FFCF49"/>
<path d="M53.1814 75.7199C53.1814 75.7199 55.1663 0.0396439 133.914 0C214.56 0 212.985 73.3413 212.985 73.3413C212.985 73.3413 209.468 112.767 132.252 112.767C55.0368 112.767 53.1814 75.7199 53.1814 75.7199Z" fill="#71E3D1"/>
<path d="M183.19 12.6861C185.468 23.0729 186.15 33.7016 185.218 44.2625C184.009 56.8508 177.74 68.5741 167.635 77.1471C155.596 87.0581 139.588 93.6588 123.86 97.1673C106.017 101.049 87.4717 101.347 69.4919 98.0394C80.6891 105.849 99.9768 112.708 133.223 112.708C210.439 112.708 213.956 73.2818 213.956 73.2818C213.956 73.2818 214.797 33.6379 183.19 12.6861Z" fill="#5AD3C2"/>
<path d="M109.729 15.5999C108.859 14.2986 107.478 13.3546 105.871 12.9635C104.265 12.5723 102.556 12.764 101.099 13.4987C95.0706 16.2046 89.7258 20.0399 85.4081 24.7579C81.0905 29.4758 77.8956 34.972 76.029 40.8927C73.7205 48.1277 85.9965 51.2199 88.305 44.0047C89.7443 39.5412 92.2035 35.4112 95.5184 31.8905C98.8333 28.3697 102.928 25.5393 107.528 23.5881C108.947 22.7755 109.968 21.49 110.378 20.0009C110.789 18.5119 110.556 16.9347 109.729 15.5999V15.5999Z" fill="#99FFEB"/>
<path d="M65.5653 250.054V249.816C65.6282 249.672 65.7511 249.556 65.9069 249.495C66.0627 249.433 66.2386 249.431 66.3959 249.489C66.5533 249.547 66.6792 249.66 66.7459 249.803C66.8127 249.946 66.8148 250.108 66.7519 250.252V250.49C66.6889 250.635 66.5661 250.75 66.4103 250.812C66.2545 250.873 66.0786 250.875 65.9213 250.817C65.7639 250.759 65.638 250.647 65.5713 250.503C65.5045 250.36 65.5024 250.199 65.5653 250.054V250.054Z" fill="#400D20"/>
<path d="M64.4434 252.195C64.5064 252.05 64.6292 251.935 64.785 251.873C64.9408 251.812 65.1167 251.81 65.274 251.868C65.4314 251.926 65.5573 252.038 65.624 252.182C65.6908 252.325 65.693 252.486 65.63 252.631C65.5671 252.775 65.4442 252.891 65.2884 252.953C65.1326 253.014 64.9567 253.016 64.7994 252.958C64.642 252.9 64.5161 252.787 64.4494 252.644C64.3826 252.501 64.3805 252.339 64.4434 252.195V252.195Z" fill="#400D20"/>
</svg>
