<svg width="166" height="127" viewBox="0 0 166 127" fill="none" xmlns="http://www.w3.org/2000/svg">
<path d="M82.5084 102.047C101.184 102.047 116.323 84.4586 116.323 62.7628C116.323 41.0669 101.184 23.479 82.5084 23.479C63.8329 23.479 48.6934 41.0669 48.6934 62.7628C48.6934 84.4586 63.8329 102.047 82.5084 102.047Z" fill="#68E1FD"/>
<path d="M110.014 35.3063C113.582 34.1633 117.209 33.2846 120.873 32.6754C122.712 32.3511 124.566 32.1465 126.426 32.0627C128.356 31.9369 130.292 32.0699 132.196 32.4592C133.297 32.6758 134.351 33.1411 135.298 33.8287C135.869 34.2656 136.355 34.8364 136.725 35.5046C137.114 36.2331 137.338 37.0635 137.377 37.9192C137.39 39.3341 137.108 40.7316 136.555 41.9918C136.116 43.0636 135.597 44.0886 135.003 45.0552C132.652 48.5642 129.932 51.7181 126.906 54.4437C121.1 59.8134 114.933 64.6342 108.463 68.8597C102.063 73.1586 95.4716 77.0623 88.7172 80.5547C81.9611 84.1057 75.025 87.1748 67.9473 89.745C64.381 91.0677 60.7565 92.1685 57.0893 93.0426C53.3315 94.0008 49.5139 94.6094 45.6728 94.8627C43.705 94.9799 41.7322 94.8894 39.7785 94.5924C37.6889 94.3174 35.6543 93.6351 33.76 92.5741C32.7193 91.9924 31.766 91.2197 30.9369 90.2856C30.0065 89.2166 29.3373 87.8795 28.998 86.4113C28.6984 85.0089 28.6984 83.5428 28.998 82.1405C29.2532 80.9214 29.6443 79.7461 30.1613 78.6446C32.2057 74.8098 34.8338 71.4391 37.9171 68.6975C40.7646 65.9579 43.8111 63.5101 47.0223 61.3814C44.3616 64.2363 41.825 67.2434 39.4217 70.3914C37.0178 73.3696 35.0243 76.7614 33.5118 80.4466C32.9027 81.8517 32.7591 83.4677 33.1085 84.9877C33.3087 85.552 33.6289 86.0481 34.0392 86.4293C34.57 86.9093 35.1544 87.3033 35.7765 87.6006C38.8622 88.7888 42.1391 89.1522 45.3626 88.6638C52.3883 87.7149 59.3019 85.8656 65.9774 83.1496C72.8024 80.5908 79.4568 77.3832 86.1423 74.1396C99.3711 67.5558 112.033 59.5311 123.959 50.1729C126.824 47.8735 129.47 45.2278 131.855 42.2801C132.384 41.5899 132.861 40.8483 133.282 40.0636C133.612 39.4607 133.833 38.7864 133.933 38.0814C133.947 37.8411 133.906 37.6008 133.813 37.3854C133.72 37.1699 133.58 36.9872 133.406 36.8561C132.82 36.3609 132.163 35.9889 131.467 35.7568C128.036 34.7985 124.506 34.4102 120.981 34.6035C117.305 34.6216 113.66 34.8738 110.014 35.3063Z" fill="#8CC63F"/>
</svg>
