<svg width="1036" height="612" viewBox="0 0 1036 612" fill="none" xmlns="http://www.w3.org/2000/svg">
<path d="M571 612C827.812 612 1036 556.251 1036 487.48C1036 418.71 827.812 362.96 571 362.96C314.188 362.96 106 418.71 106 487.48C106 556.251 314.188 612 571 612Z" fill="#1A40A1" fill-opacity="0.48"/>
<path d="M926.37 419.92H862.13C863.608 416.947 864.375 413.67 864.37 410.35V117.79C864.37 112.085 862.104 106.614 858.07 102.58C854.036 98.5462 848.565 96.28 842.86 96.28H345.52C342.694 96.2787 339.896 96.8341 337.285 97.9145C334.675 98.9949 332.302 100.579 330.304 102.577C328.305 104.574 326.72 106.946 325.638 109.556C324.557 112.167 324 114.964 324 117.79V410.36C323.995 413.68 324.762 416.957 326.24 419.93H259.73C258.221 419.93 256.774 420.529 255.707 421.597C254.639 422.664 254.04 424.111 254.04 425.62V430.21C254.048 438.644 257.404 446.73 263.37 452.691C269.337 458.652 277.426 462 285.86 462H900.24C908.679 462 916.773 458.648 922.74 452.68C928.707 446.713 932.06 438.619 932.06 430.18V425.59C932.055 424.084 931.453 422.642 930.386 421.579C929.32 420.517 927.876 419.92 926.37 419.92ZM530.48 438.12L525 431.87H661.72L655.62 438.13L530.48 438.12Z" fill="url(#paint0_linear)"/>
<path d="M834.97 100.42H353.37C340.524 100.42 330.11 110.834 330.11 123.68V405.15C330.11 417.996 340.524 428.41 353.37 428.41H834.97C847.816 428.41 858.23 417.996 858.23 405.15V123.68C858.23 110.834 847.816 100.42 834.97 100.42Z" fill="#329FF3"/>
<path d="M845.99 148.23H341.22V416.18H845.99V148.23Z" fill="white"/>
<path d="M593.61 129.33C596.068 129.33 598.06 127.338 598.06 124.88C598.06 122.422 596.068 120.43 593.61 120.43C591.152 120.43 589.16 122.422 589.16 124.88C589.16 127.338 591.152 129.33 593.61 129.33Z" fill="white"/>
<path d="M498.41 157.65H285.48C280.307 157.645 275.344 159.694 271.682 163.347C268.02 167 265.958 171.957 265.95 177.13V472.13C265.958 477.303 268.02 482.26 271.682 485.913C275.344 489.566 280.307 491.615 285.48 491.61H498.41C503.583 491.615 508.546 489.566 512.208 485.913C515.87 482.26 517.932 477.303 517.94 472.13V177.13C517.932 171.957 515.87 167 512.208 163.347C508.546 159.694 503.583 157.645 498.41 157.65Z" fill="url(#paint1_linear)"/>
<path d="M494.94 161.65H288.94C277.894 161.65 268.94 170.604 268.94 181.65V468.65C268.94 479.696 277.894 488.65 288.94 488.65H494.94C505.986 488.65 514.94 479.696 514.94 468.65V181.65C514.94 170.604 505.986 161.65 494.94 161.65Z" fill="#329FF3"/>
<path d="M502.44 192.58H281.44V457.72H502.44V192.58Z" fill="white"/>
<path d="M390.94 179.65C392.597 179.65 393.94 178.307 393.94 176.65C393.94 174.993 392.597 173.65 390.94 173.65C389.283 173.65 387.94 174.993 387.94 176.65C387.94 178.307 389.283 179.65 390.94 179.65Z" fill="white"/>
<path d="M390.94 481.65C395.911 481.65 399.94 477.621 399.94 472.65C399.94 467.679 395.911 463.65 390.94 463.65C385.969 463.65 381.94 467.679 381.94 472.65C381.94 477.621 385.969 481.65 390.94 481.65Z" fill="white"/>
<path d="M336.11 257.65H226.78C225.36 257.647 223.954 257.924 222.642 258.465C221.329 259.006 220.136 259.8 219.13 260.802C218.125 261.804 217.326 262.994 216.781 264.305C216.235 265.615 215.953 267.02 215.95 268.44V507.86C215.953 509.28 216.235 510.685 216.781 511.995C217.326 513.306 218.125 514.496 219.13 515.498C220.136 516.5 221.329 517.294 222.642 517.835C223.954 518.376 225.36 518.653 226.78 518.65H336.11C337.53 518.653 338.936 518.376 340.248 517.835C341.561 517.294 342.754 516.5 343.76 515.498C344.765 514.496 345.564 513.306 346.109 511.995C346.655 510.685 346.937 509.28 346.94 507.86V268.44C346.937 267.02 346.655 265.615 346.109 264.305C345.564 262.994 344.765 261.804 343.76 260.802C342.754 259.8 341.561 259.006 340.248 258.465C338.936 257.924 337.53 257.647 336.11 257.65Z" fill="url(#paint2_linear)"/>
<path d="M334.94 259.65H227.94C221.865 259.65 216.94 264.575 216.94 270.65V506.65C216.94 512.725 221.865 517.65 227.94 517.65H334.94C341.015 517.65 345.94 512.725 345.94 506.65V270.65C345.94 264.575 341.015 259.65 334.94 259.65Z" fill="#329FF3"/>
<path d="M336.44 283.65H226.44V493.65H336.44V283.65Z" fill="white"/>
<path d="M268.44 272.65C268.992 272.65 269.44 272.202 269.44 271.65C269.44 271.098 268.992 270.65 268.44 270.65C267.888 270.65 267.44 271.098 267.44 271.65C267.44 272.202 267.888 272.65 268.44 272.65Z" fill="white"/>
<path d="M294.44 270.65H274.44C273.888 270.65 273.44 271.098 273.44 271.65C273.44 272.202 273.888 272.65 274.44 272.65H294.44C294.992 272.65 295.44 272.202 295.44 271.65C295.44 271.098 294.992 270.65 294.44 270.65Z" fill="white"/>
<path d="M280.94 510.65C284.806 510.65 287.94 507.516 287.94 503.65C287.94 499.784 284.806 496.65 280.94 496.65C277.074 496.65 273.94 499.784 273.94 503.65C273.94 507.516 277.074 510.65 280.94 510.65Z" fill="white"/>
<path d="M716.54 536C716.54 536.09 716.48 536.2 716.45 536.28C715.761 537.99 715.236 539.761 714.88 541.57C715.12 540.79 715.4 539.99 715.72 539.19C716.113 538.161 716.389 537.091 716.54 536Z" fill="#DDDBE2"/>
<path d="M621.44 542.41C620.91 542.55 620.39 543.26 619.9 544.23L620.06 544.17C620.5 544.05 621.25 543.17 622.16 541.87C621.966 542.104 621.719 542.289 621.44 542.41Z" fill="#DDDBE2"/>
<defs>
<linearGradient id="paint0_linear" x1="593.05" y1="462.02" x2="593.05" y2="96.27" gradientUnits="userSpaceOnUse">
<stop stop-color="#808080" stop-opacity="0.25"/>
<stop offset="0.54" stop-color="#808080" stop-opacity="0.12"/>
<stop offset="1" stop-color="#808080" stop-opacity="0.1"/>
</linearGradient>
<linearGradient id="paint1_linear" x1="119694" y1="212439" x2="119694" y2="100897" gradientUnits="userSpaceOnUse">
<stop stop-color="#808080" stop-opacity="0.25"/>
<stop offset="0.54" stop-color="#808080" stop-opacity="0.12"/>
<stop offset="1" stop-color="#808080" stop-opacity="0.1"/>
</linearGradient>
<linearGradient id="paint2_linear" x1="47823" y1="173209" x2="47823" y2="105088" gradientUnits="userSpaceOnUse">
<stop stop-color="#808080" stop-opacity="0.25"/>
<stop offset="0.54" stop-color="#808080" stop-opacity="0.12"/>
<stop offset="1" stop-color="#808080" stop-opacity="0.1"/>
</linearGradient>
</defs>
</svg>
